<?xml version="1.0" standalone="no"?><!DOCTYPE svg PUBLIC "-//W3C//DTD SVG 1.1//EN" "http://www.w3.org/Graphics/SVG/1.1/DTD/svg11.dtd"><svg t="1764146009831" class="icon" viewBox="0 0 1024 1024" version="1.1" xmlns="http://www.w3.org/2000/svg" p-id="2343" xmlns:xlink="http://www.w3.org/1999/xlink" width="200" height="200"><path d="M512.1 256.5c-141.4 0-256 114.6-256 256s114.6 256 256 256 256-114.6 256-256-114.6-256-256-256z m0 432c-97.2 0-176-78.8-176-176s78.8-176 176-176 176 78.8 176 176-78.8 176-176 176zM256 832h512v96H256zM465 95.8h96v96h-96zM773.288 183.724l67.881 67.881-67.881 67.882-67.882-67.882zM929.07 463.884v96h-96v-96zM192.884 463.87v96h-96v-96zM320.614 251.58l-67.881 67.88-67.882-67.88 67.882-67.882z" p-id="2344" fill="#1afa29"></path></svg>