<?xml version="1.0" standalone="no"?><!DOCTYPE svg PUBLIC "-//W3C//DTD SVG 1.1//EN" "http://www.w3.org/Graphics/SVG/1.1/DTD/svg11.dtd"><svg t="1758591429819" class="icon" viewBox="0 0 1024 1024" version="1.1" xmlns="http://www.w3.org/2000/svg" p-id="14823" xmlns:xlink="http://www.w3.org/1999/xlink" width="200" height="200"><path d="M912 192H328a8.021333 8.021333 0 0 0-8 8V256c0 4.394667 3.605333 8 8 8H912a8.021333 8.021333 0 0 0 8-8V200A8.021333 8.021333 0 0 0 912 192z m0 284.010667H328a8.021333 8.021333 0 0 0-8 8v56c0 4.394667 3.605333 8 8 8H912a8.021333 8.021333 0 0 0 8-8v-56a8.021333 8.021333 0 0 0-8-8z m0 283.989333H328A8.021333 8.021333 0 0 0 320 768v56c0 4.394667 3.605333 8 8 8H912a8.021333 8.021333 0 0 0 8-8V768a8.021333 8.021333 0 0 0-8-8zM104 227.989333a56 56 0 1 0 112 0 56 56 0 0 0-112 0z m0 284.010667a56 56 0 1 0 112 0 56 56 0 0 0-112 0z m0 284.010667a56 56 0 1 0 112 0 56 56 0 0 0-112 0z" fill="#1296db" p-id="14824"></path></svg>