<?xml version="1.0" standalone="no"?><!DOCTYPE svg PUBLIC "-//W3C//DTD SVG 1.1//EN" "http://www.w3.org/Graphics/SVG/1.1/DTD/svg11.dtd"><svg t="1758591354521" class="icon" viewBox="0 0 1024 1024" version="1.1" xmlns="http://www.w3.org/2000/svg" p-id="11731" xmlns:xlink="http://www.w3.org/1999/xlink" width="200" height="200"><path d="M609.710794 991.383576c-2.143937 0-4.321904-0.544492-7.010333-1.088984L72.263285 857.949036a28.858069 28.858069 0 0 1-21.609521-27.564901L51.198256 265.950249A27.905208 27.905208 0 0 1 86.283951 238.895809l530.437175 132.379586a28.858069 28.858069 0 0 1 21.609522 27.564901l-0.544492 564.467918a27.632962 27.632962 0 0 1-10.821776 22.119982 26.884286 26.884286 0 0 1-17.287617 5.95538zM107.383011 808.808645l473.741959 118.290859 0.544492-506.683717-473.707928-117.746368-0.578523 506.139226z" fill="#1296db" p-id="11732"></path><path d="M609.710794 426.915658c-2.143937 0-4.321904-0.544492-7.010333-1.088983L72.807777 294.025611a28.517762 28.517762 0 0 1-21.09906-22.119983 27.428778 27.428778 0 0 1 11.91076-28.109392L384.461312 25.523056A28.075362 28.075362 0 0 1 407.193848 21.779675l530.437175 132.345555c10.821776 2.722459 18.921093 11.332237 21.09906 22.119983a27.428778 27.428778 0 0 1-11.910759 28.109393l-320.875866 218.239148a33.00982 33.00982 0 0 1-16.198634 4.321904zM147.879594 254.54995l456.964803 114.002986 258.225271-175.598629-456.998834-114.479416L147.879594 254.54995z" fill="#1296db" p-id="11733"></path><path d="M609.710794 991.383576a28.483731 28.483731 0 0 1-28.075363-28.075362l0.544492-564.501949a28.926131 28.926131 0 0 1 12.421221-23.208966l320.841836-218.239148a28.313577 28.313577 0 0 1 44.308026 23.242997l-0.544492 564.467917a28.926131 28.926131 0 0 1-12.421221 23.208966l-320.875866 218.239149a31.274252 31.274252 0 0 1-16.198633 4.866396z m28.653884-577.43363l-0.544492 496.406433 264.14662-179.886502 0.510461-496.406434-264.112589 179.886503zM400.149484 81.19735a27.905208 27.905208 0 0 1-28.109392-28.075362v-4.866396a27.905208 27.905208 0 0 1 28.109392-28.109393 27.905208 27.905208 0 0 1 28.075363 28.109393v4.866396a27.905208 27.905208 0 0 1-28.075363 28.075362z m0 491.540038a27.905208 27.905208 0 0 1-28.109392-28.075362v-15.10965a27.905208 27.905208 0 0 1 28.109392-28.109393 27.905208 27.905208 0 0 1 28.075363 28.109393v15.10965a28.245516 28.245516 0 0 1-28.075363 28.075362z m0-104.236163a27.905208 27.905208 0 0 1-28.109392-28.109393v-15.109649a27.905208 27.905208 0 0 1 28.109392-28.075362 27.905208 27.905208 0 0 1 28.075363 28.075362v15.109649a27.905208 27.905208 0 0 1-28.075363 28.109393z m0-104.270193a27.905208 27.905208 0 0 1-28.109392-28.075363v-14.599188a27.905208 27.905208 0 0 1 28.109392-28.075362 27.905208 27.905208 0 0 1 28.075363 28.075362v15.14368c0 15.109649-12.421221 27.564901-28.075363 27.564901z m0-103.691671a27.905208 27.905208 0 0 1-28.109392-28.109393v-15.10965a27.905208 27.905208 0 0 1 28.109392-28.075362 27.905208 27.905208 0 0 1 28.075363 28.075362v15.10965a28.245516 28.245516 0 0 1-28.075363 28.109393z m0-104.270194a27.905208 27.905208 0 0 1-28.109392-28.075362v-15.14368a27.905208 27.905208 0 0 1 28.109392-28.075362 27.905208 27.905208 0 0 1 28.075363 28.075362v15.14368a27.905208 27.905208 0 0 1-28.075363 28.075362z m0 482.385768a27.905208 27.905208 0 0 1-28.109392-28.109393V605.747207a27.905208 27.905208 0 0 1 28.109392-28.109392 27.905208 27.905208 0 0 1 28.075363 28.109392v4.832366a27.905208 27.905208 0 0 1-28.075363 28.109393zM76.040698 857.915006a27.564901 27.564901 0 0 1-23.242997-12.421221 27.905208 27.905208 0 0 1 7.554825-38.897138l3.811443-2.688429a27.905208 27.905208 0 0 1 38.863107 7.554825 27.905208 27.905208 0 0 1-7.554825 38.897138l-3.743381 2.722459a28.143424 28.143424 0 0 1-15.688172 4.832366z" fill="#1296db" p-id="11734"></path><path d="M126.270073 823.918294a27.564901 27.564901 0 0 1-23.242997-12.421221 27.905208 27.905208 0 0 1 7.588856-38.897138l11.332237-7.554824a27.905208 27.905208 0 0 1 38.897138 7.554824 27.905208 27.905208 0 0 1-7.554825 38.897138l-11.366268 7.554825a24.468103 24.468103 0 0 1-15.654141 4.866396z m79.972244-53.462295a27.564901 27.564901 0 0 1-23.242997-12.421221 27.905208 27.905208 0 0 1 7.554824-38.897138l11.332238-7.554825a27.905208 27.905208 0 0 1 38.897138 7.554825 27.905208 27.905208 0 0 1-7.554825 38.897138l-11.366268 7.554825a28.143424 28.143424 0 0 1-15.654141 4.866396z m79.35969-54.006788a27.564901 27.564901 0 0 1-23.208966-12.455251 27.905208 27.905208 0 0 1 7.554825-38.863108l11.332237-7.588855a27.905208 27.905208 0 0 1 38.897138 7.588855 27.905208 27.905208 0 0 1-7.554825 38.863108l-11.332237 7.588855a26.884286 26.884286 0 0 1-15.654141 4.866396z m79.972244-54.040818a27.564901 27.564901 0 0 1-23.242997-12.421221 27.905208 27.905208 0 0 1 7.554824-38.897138l7.588856-4.866396a27.905208 27.905208 0 0 1 38.863107 7.588855 27.905208 27.905208 0 0 1-7.554824 38.897138l-7.554825 4.832366a28.143424 28.143424 0 0 1-15.654141 4.866396z" fill="#1296db" p-id="11735"></path><path d="M396.338041 641.343364a27.564901 27.564901 0 0 1-23.208966-12.421221 27.905208 27.905208 0 0 1 7.554825-38.897138l3.777412-2.72246a27.905208 27.905208 0 0 1 38.897138 7.588856 27.905208 27.905208 0 0 1-7.554824 38.897138l-3.777413 2.722459a28.143424 28.143424 0 0 1-15.654141 4.832366z m537.481539 131.256571c-2.143937 0-4.321904 0-7.010333-1.054953l-4.866396-1.088983a28.007301 28.007301 0 0 1-20.520537-34.030742 28.007301 28.007301 0 0 1 34.030742-20.520538l4.866396 1.054953a28.007301 28.007301 0 0 1 20.520537 34.030742 27.224594 27.224594 0 0 1-27.020409 21.609521z m-61.595643-15.654141c-2.143937 0-4.287873 0-7.010333-1.088984l-14.020665-3.743381a28.007301 28.007301 0 0 1-20.554568-34.030742 28.245516 28.245516 0 0 1 34.030742-20.554568l14.054696 3.777412a28.007301 28.007301 0 0 1 20.520537 34.030742 28.109393 28.109393 0 0 1-26.986378 21.609521z m-98.825274-24.842442c-2.177967 0-4.321904 0-7.044364-1.088983l-14.020666-3.777413a28.007301 28.007301 0 0 1-20.520537-34.030742 28.007301 28.007301 0 0 1 34.030742-20.520537l14.020666 3.777412a28.007301 28.007301 0 0 1 20.520537 34.030742 27.666993 27.666993 0 0 1-26.986378 21.609521z m-98.859306-24.297949c-2.143937 0-4.321904 0-7.010333-1.088984l-14.054696-3.777412a28.007301 28.007301 0 0 1-20.520538-34.030742 28.007301 28.007301 0 0 1 34.030742-20.520538l14.054697 3.743382a28.007301 28.007301 0 0 1 20.520537 34.030742 27.224594 27.224594 0 0 1-27.020409 21.643552z m-98.314814-24.842442c-2.143937 0-4.321904 0-7.010332-1.088984l-14.054697-3.777412a28.007301 28.007301 0 0 1-20.520537-34.030742 28.007301 28.007301 0 0 1 34.030742-20.554568l14.054696 3.811443a28.007301 28.007301 0 0 1 20.520538 34.030742 28.109393 28.109393 0 0 1-27.02041 21.57549z m-98.859305-24.842442c-2.143937 0-4.321904-0.578523-7.010333-1.088983l-14.054696-3.811444a28.007301 28.007301 0 0 1-20.520538-34.030741 28.007301 28.007301 0 0 1 34.030742-20.520538l14.054697 3.777412a28.007301 28.007301 0 0 1 20.520537 34.030742 28.109393 28.109393 0 0 1-27.020409 21.609522z" fill="#1296db" p-id="11736"></path><path d="M404.471389 640.25438c-2.177967 0-4.321904 0-7.044364-1.054953l-4.866396-1.088984a28.007301 28.007301 0 0 1-20.520537-34.030742 28.007301 28.007301 0 0 1 34.030742-20.520537l4.866396 1.088983a28.007301 28.007301 0 0 1 20.520537 34.030742 27.224594 27.224594 0 0 1-26.986378 21.575491zM342.875746 57.954354a57.273739 57.273739 0 1 0 114.513446 0 57.273739 57.273739 0 0 0-114.513446 0zM876.579872 181.656101a57.273739 57.273739 0 1 0 114.513447 0 57.273739 57.273739 0 0 0-114.513447 0zM552.471086 400.984233a57.273739 57.273739 0 1 0 114.513446 0 57.273739 57.273739 0 0 0-114.513446 0z" fill="#1296db" p-id="11737"></path><path d="M342.875746 610.545542a57.273739 57.273739 0 1 0 114.513446 0 57.273739 57.273739 0 0 0-114.513446 0zM876.579872 743.980081a57.273739 57.273739 0 1 0 114.513447 0 57.273739 57.273739 0 0 0-114.513447 0zM552.471086 963.308214a57.273739 57.273739 0 1 0 114.513446 0 57.273739 57.273739 0 0 0-114.513446 0zM18.766959 829.873674a57.273739 57.273739 0 1 0 114.513447 0 57.273739 57.273739 0 0 0-114.513447 0zM18.766959 267.549694a57.273739 57.273739 0 1 0 114.513447 0 57.273739 57.273739 0 0 0-114.513447 0z" fill="#1296db" p-id="11738"></path></svg>