<?xml version="1.0" standalone="no"?><!DOCTYPE svg PUBLIC "-//W3C//DTD SVG 1.1//EN" "http://www.w3.org/Graphics/SVG/1.1/DTD/svg11.dtd"><svg t="1758591372130" class="icon" viewBox="0 0 1024 1024" version="1.1" xmlns="http://www.w3.org/2000/svg" p-id="12842" xmlns:xlink="http://www.w3.org/1999/xlink" width="200" height="200"><path d="M914.64 331.131H110.321v89.365h89.366v536.212h625.576V420.496h89.375zM735.898 867.342H289.063V420.506h446.846v446.847zM199.677 63.025h178.751v89.365h-178.75z m0 134.053h178.751v89.365h-178.75zM646.534 63.025h178.74v89.365h-178.74z m0 134.053h178.74v89.365h-178.74zM423.116 63.025h178.74v89.365h-178.74z m0 134.053h178.74v89.365h-178.74z" p-id="12843" fill="#1296db"></path><path d="M417.375 565.826l-65.85 172.222h30.188l15.677-43.173h72.122l15.677 43.173h30.147l-65.88-172.222z m-11.584 105.891l27.261-75.5h0.962l27.015 75.5zM532.14 565.826v172.222h79.122c18.327 0 32.807-3.377 42.978-10.13 11.81-8.187 17.847-20.979 17.847-38.344 0-11.584-2.896-20.988-8.443-27.742-5.791-7-14.234-11.584-25.582-13.753 8.688-3.377 15.196-7.961 19.78-14.224 4.585-6.754 7-14.96 7-24.56 0-13.026-4.585-23.392-13.508-31.108-9.65-8.186-23.157-12.28-40.287-12.28z m28.222 23.157h43.665c11.573 0 19.78 1.934 25.08 5.792 4.83 3.623 7.481 9.65 7.481 17.846 0 8.924-2.65 15.442-7.48 19.546-5.065 3.857-13.508 6.027-25.583 6.027h-43.183z m0 72.368h47.523q18.818 0 27.496 6.508c5.546 4.34 8.442 11.339 8.442 21.224 0 9.65-3.858 16.373-11.574 20.752-6.037 3.377-14.48 5.117-25.09 5.117h-46.756z" p-id="12844" fill="#1296db"></path></svg>