<?xml version="1.0" standalone="no"?><!DOCTYPE svg PUBLIC "-//W3C//DTD SVG 1.1//EN" "http://www.w3.org/Graphics/SVG/1.1/DTD/svg11.dtd"><svg t="1758591312988" class="icon" viewBox="0 0 1024 1024" version="1.1" xmlns="http://www.w3.org/2000/svg" p-id="8283" xmlns:xlink="http://www.w3.org/1999/xlink" width="200" height="200"><path d="M974.72 911.36l-154.88-154.88a439.04 439.04 0 0 0 99.2-279.04 441.664 441.664 0 0 0-883.2 0 441.664 441.664 0 0 0 720.64 342.4l154.88 154.88c17.28 17.28 46.08 17.28 63.36 0s17.28-46.08 0-63.36z m-497.28-81.92c-193.92 0-352-158.08-352-352s158.08-352 352-352 352 158.08 352 352-157.44 352-352 352z" p-id="8284" fill="#1296db"></path><path d="M637.44 432.64h-115.2v-115.2c0-24.96-19.84-44.8-44.8-44.8s-44.8 19.84-44.8 44.8v115.2h-115.2c-24.96 0-44.8 19.84-44.8 44.8s19.84 44.8 44.8 44.8h115.2v115.2c0 24.96 19.84 44.8 44.8 44.8s44.8-19.84 44.8-44.8v-115.2h115.2c24.96 0 44.8-19.84 44.8-44.8s-19.84-44.8-44.8-44.8z" p-id="8285" fill="#1296db"></path></svg>