<?xml version="1.0" standalone="no"?><!DOCTYPE svg PUBLIC "-//W3C//DTD SVG 1.1//EN" "http://www.w3.org/Graphics/SVG/1.1/DTD/svg11.dtd"><svg t="1758590204424" class="icon" viewBox="0 0 1024 1024" version="1.1" xmlns="http://www.w3.org/2000/svg" p-id="8214" xmlns:xlink="http://www.w3.org/1999/xlink" width="200" height="200"><path d="M867.242667 42.666667l-0.042667 154.88h62.762667c46.378667 0.042667 85.461333 33.408 92.842666 78.506666l0.853334 6.528 0.341333 8.064v391.082667c0 48.128-37.12 88.277333-85.930667 92.672l-8.106666 0.426667-94.122667-0.085334 0.085333 249.258667H188.074667v-249.258667l-94.037334 0.042667a93.781333 93.781333 0 0 1-92.842666-78.506667l-0.853334-6.485333L0 681.728V290.645333c0-48.128 37.12-88.32 85.930667-92.714666l8.106666-0.341334h62.634667L156.714667 42.666667a42.666667 42.666667 0 0 1 42.666666-42.666667h625.237334a42.666667 42.666667 0 0 1 42.666666 42.666667z m-114.901334 463.146666H271.658667v435.328h480.682666V505.813333z m182.997334-230.912H86.912c-4.992 0-9.258667 3.456-10.069333 7.168l-0.384 3.072v402.048c0 4.864 3.456 9.045333 7.296 9.856l3.157333 0.384h101.12l0.042667-274.432h647.850666l-0.085333 274.389334h100.096a10.922667 10.922667 0 0 0 9.216-4.949334l0.853333-2.133333 0.426667-3.114667V285.141333c0-4.821333-3.498667-9.045333-7.338667-9.856l-3.754666-0.426666zM783.658667 82.773333H240.298667L240.213333 197.546667h543.36l0.042667-114.773334z" fill="#1296db" p-id="8215"></path></svg>