<?xml version="1.0" standalone="no"?><!DOCTYPE svg PUBLIC "-//W3C//DTD SVG 1.1//EN" "http://www.w3.org/Graphics/SVG/1.1/DTD/svg11.dtd"><svg t="1758590421680" class="icon" viewBox="0 0 1024 1024" version="1.1" xmlns="http://www.w3.org/2000/svg" p-id="11613" xmlns:xlink="http://www.w3.org/1999/xlink" width="200" height="200"><path d="M512 96c-229.6 0-416 186.4-416 416s186.4 416 416 416 416-186.4 416-416-186.4-416-416-416z m0 768c-183.2 0-334.4-140.8-350.4-320H416v96h64V384h-64v96H161.6c16-179.2 167.2-320 350.4-320s334.4 140.8 350.4 320H608V256h-64v512h64V544h254.4c-16 179.2-167.2 320-350.4 320z" p-id="11614" fill="#1296db"></path></svg>