<?xml version="1.0" standalone="no"?><!DOCTYPE svg PUBLIC "-//W3C//DTD SVG 1.1//EN" "http://www.w3.org/Graphics/SVG/1.1/DTD/svg11.dtd"><svg t="1762327761496" class="icon" viewBox="0 0 1024 1024" version="1.1" xmlns="http://www.w3.org/2000/svg" p-id="6762" xmlns:xlink="http://www.w3.org/1999/xlink" width="200" height="200"><path d="M422.6 309.7l128.5-128.5c25.6 20.9 63.3 19.4 87.2-4.4 25.4-25.4 25.4-66.7 0-92.1-25.4-25.4-66.7-25.4-92.1 0-23.9 23.9-25.3 61.6-4.4 87.2L400.1 313.6 362 275.5 276.4 361l38.1 38.1-141.6 141.7c-25.6-20.9-63.3-19.4-87.2 4.4-25.4 25.4-25.4 66.7 0 92.1 25.4 25.4 66.7 25.4 92.1 0 23.9-23.9 25.3-61.6 4.4-87.2l136.2-136.2C237.1 542.5 252 714.3 363.1 827l-40.6 40.6 85.5 85.5 85.5-85.5-85.5-85.5-31.8 31.8c-105.8-107.3-119.1-271.4-40-393.1l25.8 25.8 85.5-85.5-27.3-27.3c122.5-85.8 292.3-74.6 402.3 33.9L783 407l85.5 85.5L954 407l-85.5-85.5-32.9 32.9c-112.6-111.1-284.5-126-413-44.7zM556.1 94.5c20-20 52.4-20 72.4 0 20 20 20 52.4 0 72.4-20 20-52.4 20-72.4 0-20-20-20-52.4 0-72.4zM167.9 627.4c-20 20-52.4 20-72.4 0-20-20-20-52.4 0-72.4s52.4-20 72.4 0c20 20.1 20 52.5 0 72.4z m240.1 181l59.2 59.2-59.2 59.2-59.2-59.2 59.2-59.2zM421.2 361L362 420.2 302.8 361l59.2-59.2 59.2 59.2z m506.6 46l-59.2 59.2-59.2-59.2 59.2-59.2 59.2 59.2z" fill="#1296db" p-id="6763"></path></svg>